<?xml version="1.0" standalone="no"?>
<!DOCTYPE svg PUBLIC "-//W3C//DTD SVG 20010904//EN"
 "http://www.w3.org/TR/2001/REC-SVG-20010904/DTD/svg10.dtd">
<svg version="1.0" xmlns="http://www.w3.org/2000/svg"
 width="1280.000000pt" height="982.000000pt" viewBox="0 0 1280.000000 982.000000"
 preserveAspectRatio="xMidYMid meet">
<metadata>
Created by potrace 1.15, written by Peter Selinger 2001-2017
</metadata>
<g transform="translate(0.000000,982.000000) scale(0.100000,-0.100000)"
fill="#000000" stroke="none">
<path d="M9430 9801 c-41 -11 -106 -32 -145 -46 -287 -109 -441 -149 -605
-159 -217 -12 -347 -82 -418 -223 -16 -32 -43 -103 -60 -158 -19 -62 -42 -112
-59 -132 -18 -21 -79 -58 -168 -102 -304 -151 -621 -391 -1165 -882 -212 -192
-243 -217 -362 -288 -127 -76 -274 -207 -645 -575 l-332 -328 -533 5 c-402 4
-558 9 -633 21 -310 47 -420 -4 -635 -291 -46 -63 -96 -112 -137 -136 -6 -4
-123 -30 -260 -58 -284 -57 -376 -80 -633 -154 -318 -91 -406 -109 -560 -109
-104 0 -158 5 -235 22 -312 70 -431 78 -765 49 -217 -19 -394 -33 -615 -47
-367 -24 -445 -51 -461 -158 -9 -61 8 -90 71 -122 47 -24 59 -25 210 -24 188
1 265 15 509 94 229 74 274 83 406 83 97 0 129 -5 205 -28 165 -51 239 -65
385 -75 150 -10 238 -29 260 -54 20 -25 8 -50 -29 -61 -43 -13 -65 -59 -91
-193 -41 -213 -53 -596 -21 -679 27 -71 70 -22 92 104 8 43 10 124 6 227 -5
139 -3 168 14 221 67 219 386 487 634 535 33 6 92 10 132 8 l71 -3 -94 -130
c-162 -223 -171 -245 -91 -245 76 0 80 -18 41 -173 -48 -195 -95 -340 -143
-446 -72 -159 -114 -297 -160 -530 -25 -125 -30 -223 -12 -245 18 -21 54 -20
73 2 25 28 54 92 76 167 30 104 32 122 47 350 15 236 30 301 93 395 65 97 122
104 122 16 0 -22 -11 -83 -25 -134 -22 -86 -39 -205 -65 -482 -6 -63 -18 -141
-26 -173 -16 -65 -15 -138 2 -144 14 -5 157 330 183 429 11 40 22 107 25 149
19 230 186 597 298 655 29 15 32 15 44 -1 50 -68 7 -523 -72 -752 -52 -150
-51 -154 34 -231 83 -74 84 -78 46 -190 -46 -139 -115 -242 -160 -242 -30 0
-37 50 -19 139 11 60 13 87 5 95 -49 49 -146 -217 -170 -466 -16 -172 -29
-237 -60 -308 -29 -67 -62 -183 -99 -351 -12 -53 -28 -104 -35 -114 -12 -17
-14 -15 -26 21 -7 21 -19 49 -26 62 -13 19 -18 21 -37 11 -12 -7 -39 -27 -60
-45 -52 -47 -93 -47 -113 1 -7 19 -14 48 -14 64 0 97 -141 75 -277 -45 -63
-55 -106 -135 -97 -181 15 -75 93 -110 270 -123 260 -19 617 -124 877 -257
114 -59 152 -93 142 -130 -4 -16 -11 -34 -17 -40 -16 -20 -66 -16 -77 6 -20
36 -88 54 -224 59 -186 6 -397 -24 -592 -85 -163 -51 -232 -102 -279 -203 -49
-104 -36 -115 114 -106 66 4 110 3 110 -2 0 -14 -99 -64 -395 -200 -595 -274
-913 -426 -970 -465 -141 -95 -318 -262 -331 -312 -11 -46 1 -58 52 -52 35 4
55 13 82 40 52 51 80 59 182 51 99 -8 162 4 255 46 92 41 125 73 125 122 0 32
3 39 18 36 23 -4 41 -60 41 -128 1 -79 17 -130 41 -130 14 0 22 11 29 37 5 21
14 57 21 80 11 45 54 103 75 103 30 0 33 -76 5 -138 -57 -126 -267 -241 -507
-277 -120 -18 -195 -18 -293 -1 -100 18 -171 50 -244 109 -115 93 -268 147
-420 148 -127 0 -174 -33 -149 -108 9 -25 16 -29 64 -35 187 -26 290 -67 357
-143 46 -53 57 -93 38 -139 -20 -47 -59 -71 -192 -117 -138 -47 -190 -72 -203
-98 -13 -24 4 -86 31 -113 29 -29 83 -20 303 52 240 78 426 126 560 146 180
26 416 116 795 305 391 196 663 364 815 504 28 25 97 78 155 117 137 94 199
146 251 216 59 79 109 131 142 148 15 8 67 26 115 40 218 63 376 149 488 267
41 43 134 157 206 255 214 289 233 314 310 393 118 122 249 209 358 239 25 7
106 14 180 15 211 4 371 57 412 135 35 65 183 189 374 313 147 94 257 151 371
191 140 48 172 66 230 130 56 61 111 151 198 326 119 240 178 320 289 395 44
30 102 71 128 89 50 36 122 53 316 76 263 30 686 31 715 0 17 -16 -17 -42
-198 -153 -214 -131 -370 -251 -526 -407 -153 -152 -236 -253 -347 -420 -176
-264 -369 -704 -428 -975 -23 -109 -24 -323 0 -428 51 -231 205 -548 441 -907
467 -711 1096 -1162 1961 -1405 266 -76 592 -112 899 -102 299 11 529 54 710
133 110 49 266 106 415 152 345 108 650 264 940 483 607 458 1021 1112 1105
1748 44 328 -15 633 -172 894 -26 43 -90 125 -141 181 -135 148 -206 238 -253
319 -128 220 -231 352 -428 547 -95 94 -173 161 -220 190 -161 100 -223 143
-295 211 -95 89 -188 211 -235 309 -32 67 -36 83 -35 155 1 138 88 511 160
685 83 201 97 255 114 466 6 78 22 191 36 250 14 60 30 132 36 159 15 75 4
249 -20 316 -29 82 -17 113 103 254 148 173 226 327 228 444 1 150 -85 239
-303 313 -228 77 -228 123 4 473 207 311 223 373 120 464 -116 102 -522 263
-939 371 -226 59 -287 70 -444 80 -169 11 -206 25 -333 120 -44 33 -94 68
-111 77 -47 24 -141 26 -227 4z m202 -191 c79 -22 124 -83 138 -183 10 -66 59
-175 159 -351 33 -60 60 -110 58 -112 -1 -2 -84 -12 -182 -23 -197 -23 -384
-27 -433 -10 -33 11 -46 40 -73 159 -26 119 -73 168 -153 156 -23 -3 -65 -12
-95 -20 -29 -9 -94 -18 -145 -21 -169 -11 -186 -19 -186 -85 0 -53 -16 -90
-38 -90 -41 0 -209 147 -240 211 -41 82 9 114 228 148 167 27 304 66 476 136
72 30 165 63 205 74 82 22 221 27 281 11z m698 -176 c177 -33 594 -172 765
-254 173 -83 196 -132 108 -223 -28 -29 -71 -83 -96 -122 -25 -38 -56 -80 -69
-92 -35 -33 -91 -53 -146 -53 -91 0 -143 37 -197 138 -44 81 -124 132 -207
132 -53 -1 -77 -14 -123 -68 -43 -50 -64 -52 -98 -12 -26 31 -108 192 -150
297 -95 235 -38 305 213 257z m-1940 -544 c42 -21 74 -68 61 -88 -11 -18 -61
-30 -189 -47 -123 -16 -282 -20 -282 -7 0 23 111 92 215 133 83 34 142 36 195
9z m1855 -310 c221 -47 420 -134 573 -250 107 -81 205 -138 435 -251 238 -116
269 -151 209 -235 -62 -85 -152 -147 -246 -171 -129 -31 -296 9 -566 137 -252
119 -361 146 -550 137 -121 -6 -240 -30 -450 -91 -172 -50 -317 -75 -501 -86
-274 -17 -405 -55 -569 -166 -46 -31 -83 -47 -125 -55 -99 -19 -139 -37 -206
-95 -35 -30 -75 -57 -89 -60 -49 -10 -70 -24 -70 -44 0 -25 39 -45 73 -36 13
3 40 19 61 35 27 22 52 31 94 36 129 13 142 17 174 43 27 23 41 27 97 27 85 0
88 -13 21 -95 -27 -35 -50 -72 -50 -83 0 -11 33 -54 75 -96 71 -74 107 -132
98 -158 -7 -20 -59 -15 -124 13 -113 47 -150 14 -88 -79 37 -57 81 -92 129
-104 44 -12 59 -47 40 -92 -27 -66 -66 -61 -154 18 -63 57 -93 69 -137 51 -35
-15 -54 -48 -62 -110 -7 -56 -28 -74 -104 -89 -72 -14 -103 -34 -103 -67 0
-19 8 -28 35 -40 19 -7 43 -14 54 -14 57 0 102 -52 103 -120 1 -55 -19 -98
-54 -116 -49 -25 -255 -36 -462 -25 -210 12 -305 25 -384 52 -82 28 -99 25
-146 -25 -53 -58 -82 -69 -156 -57 -96 16 -160 -8 -160 -59 0 -35 28 -59 76
-67 61 -9 139 -53 354 -197 226 -152 270 -171 432 -185 106 -9 177 -31 186
-58 2 -7 -15 -21 -38 -33 -87 -44 -150 -122 -150 -184 0 -57 77 -106 168 -106
56 0 92 -15 92 -39 0 -30 -45 -51 -136 -63 -213 -29 -714 61 -879 157 -22 13
-70 47 -107 77 -37 29 -104 75 -150 102 -46 27 -114 69 -152 95 -38 25 -80 54
-95 63 -59 40 -83 9 -55 -74 26 -79 15 -158 -34 -260 -116 -237 -427 -529
-660 -621 -62 -24 -97 -31 -177 -35 -158 -7 -296 36 -460 143 -88 57 -261 235
-332 341 -67 101 -87 151 -104 264 -33 219 56 584 194 790 66 98 115 138 262
210 115 57 169 92 305 197 134 104 214 179 434 403 509 518 751 755 811 794
77 51 186 135 300 232 172 145 381 266 555 322 221 71 455 87 825 57 409 -33
876 0 1275 90 58 13 116 26 130 29 61 11 318 -3 415 -24z m705 -1158 c60 -30
71 -51 49 -103 -39 -96 -347 -286 -574 -355 -79 -24 -108 -27 -230 -28 -124
-1 -147 2 -196 22 -72 29 -139 89 -139 125 0 21 9 31 38 46 41 21 154 56 312
97 137 35 275 92 352 144 34 23 77 49 96 57 95 40 205 38 292 -5z m182 -363
c47 -25 63 -149 29 -225 -10 -23 -38 -60 -62 -83 -65 -63 -328 -237 -434 -287
-149 -71 -225 -88 -395 -88 -127 0 -157 3 -245 27 -56 15 -118 40 -140 55
-143 99 73 212 460 241 100 7 133 14 193 40 99 42 240 125 341 203 46 34 104
78 128 96 47 33 88 41 125 21z m-6075 -300 c33 -12 43 -26 43 -59 0 -39 -35
-87 -166 -232 -216 -238 -282 -326 -356 -473 -93 -183 -133 -348 -133 -545 0
-204 32 -346 115 -513 162 -323 432 -547 858 -712 121 -46 191 -88 219 -131
12 -19 12 -24 -1 -37 -21 -20 -87 -31 -143 -22 -33 5 -53 15 -73 37 l-28 30
-144 -2 c-189 -4 -183 -5 -158 20 26 26 25 42 -1 66 -18 16 -35 19 -110 17
l-89 -2 0 50 c0 68 -23 113 -91 180 -64 62 -160 114 -237 129 -108 20 -265
-31 -336 -110 -47 -53 -48 -84 -1 -111 43 -26 44 -44 5 -112 -37 -67 -39 -97
-6 -97 13 0 84 30 157 66 138 69 227 104 263 104 18 0 16 -5 -16 -33 -46 -41
-58 -65 -58 -120 0 -57 28 -93 83 -108 67 -18 70 -23 62 -106 -5 -58 -4 -74 7
-78 12 -5 130 27 195 52 23 9 14 -31 -27 -115 -44 -89 -52 -142 -22 -142 24 0
54 22 138 99 39 36 100 83 135 104 118 69 131 41 35 -78 -94 -117 -211 -234
-251 -251 -92 -38 -188 -9 -530 161 -308 152 -341 177 -450 340 -52 78 -113
152 -176 215 -81 81 -103 109 -137 182 -107 223 -161 562 -149 938 9 282 55
536 127 701 38 86 49 104 106 179 24 30 53 81 65 114 19 51 42 79 172 212
l150 154 186 0 c224 0 540 17 636 35 93 17 99 17 132 4z m5976 -387 c25 -22
21 -70 -10 -115 -70 -101 -432 -332 -583 -372 -190 -51 -505 -12 -550 67 -28
52 17 86 156 119 327 77 565 164 766 278 90 51 179 60 221 23z m-139 -574 c21
-29 20 -81 -1 -126 -26 -54 -164 -194 -273 -276 -160 -121 -300 -183 -464
-206 -176 -26 -299 25 -238 99 9 12 91 60 182 107 212 109 389 216 526 316
126 92 153 106 211 107 32 1 45 -4 57 -21z m-73 -867 c28 -17 72 -64 116 -122
38 -52 101 -124 140 -160 60 -56 85 -71 175 -108 180 -72 258 -127 473 -332
159 -153 229 -256 325 -484 86 -205 142 -281 264 -361 l76 -49 -1 -290 c0
-422 -15 -849 -32 -915 -8 -30 -46 -117 -85 -193 -40 -76 -83 -178 -97 -225
-61 -206 -79 -258 -121 -340 -53 -105 -65 -119 -129 -156 -27 -16 -107 -72
-178 -123 -191 -141 -233 -159 -287 -128 -35 20 -97 18 -161 -4 -143 -49 -609
-275 -609 -295 0 -50 -288 -188 -501 -240 -173 -42 -255 -42 -289 1 -37 48 0
73 131 88 80 9 86 19 91 145 3 100 6 110 46 194 23 48 42 98 42 111 0 42 -40
75 -159 131 -174 82 -183 87 -189 102 -7 19 12 29 160 84 139 50 184 77 199
116 14 37 -7 90 -45 113 -39 24 -67 24 -97 0 -53 -40 -94 -55 -159 -55 -90 0
-150 34 -150 84 0 49 -31 65 -135 68 -112 5 -196 -11 -233 -43 -34 -30 -26
-46 43 -92 58 -38 85 -77 85 -121 0 -35 -15 -72 -34 -84 -33 -22 -188 4 -336
57 -168 61 -340 161 -340 200 0 23 30 26 203 19 144 -6 169 -5 165 7 -10 33
-217 119 -324 134 -63 10 -94 26 -132 70 -68 77 -91 141 -102 294 -7 99 -13
123 -39 174 -17 33 -31 68 -31 77 0 10 27 41 60 70 32 28 62 60 65 70 4 11 -7
48 -24 89 -32 73 -39 125 -19 137 7 4 28 10 48 14 57 9 53 46 -17 180 l-58
112 -2 96 c-2 111 -5 115 -108 153 -33 12 -64 26 -70 31 -15 13 123 145 182
174 29 14 57 32 63 40 7 7 16 59 21 114 7 88 12 108 38 146 18 27 32 65 36 97
11 80 20 94 104 176 65 63 81 84 86 117 9 59 22 84 43 84 60 0 205 155 218
232 12 73 18 75 130 40 54 -17 112 -33 127 -37 52 -11 57 -43 57 -342 0 -267
5 -343 21 -343 14 0 65 109 97 211 17 53 43 157 57 230 15 74 36 155 47 182
34 78 70 74 204 -23 94 -69 146 -95 168 -87 24 9 20 34 -19 103 -19 34 -35 71
-35 81 0 31 28 62 125 133 102 75 135 123 135 198 0 45 15 93 33 104 7 4 27 8
45 8 64 0 112 -76 112 -180 0 -64 25 -153 66 -236 40 -82 75 -120 100 -110 19
7 17 37 -15 186 -24 109 -30 273 -12 339 15 51 51 91 84 91 13 0 43 -13 68
-29z m-3035 -1309 c42 -31 111 -103 138 -144 16 -25 13 -58 -5 -58 -45 0 -192
132 -204 183 -14 53 14 60 71 19z m-147 -165 c65 -39 236 -200 227 -215 -15
-24 -151 36 -252 112 -66 49 -94 84 -94 115 0 39 37 36 119 -12z m-32 -304
c22 -16 68 -47 102 -70 34 -23 106 -64 159 -92 105 -54 153 -94 135 -112 -27
-27 -256 71 -390 167 -120 86 -126 187 -6 107z m114 -339 c160 -78 251 -140
247 -168 -7 -47 -90 -16 -283 107 -111 70 -125 82 -125 105 0 24 49 11 161
-44z m169 -401 c239 -94 320 -150 245 -169 -91 -23 -435 144 -435 211 0 25 48
14 190 -42z m70 -321 c41 -18 86 -41 100 -52 l25 -20 -80 0 c-93 0 -191 19
-229 43 -25 17 -34 46 -18 61 16 17 129 -1 202 -32z m176 -293 c56 -21 100
-61 89 -80 -12 -19 -139 -4 -194 23 -35 18 -47 29 -49 50 -2 19 2 28 15 31 26
7 80 -3 139 -24z m1235 -718 c59 -19 119 -60 119 -81 0 -4 -8 -18 -19 -31 -18
-23 -20 -23 -96 -10 -103 17 -165 36 -206 64 -38 25 -47 50 -28 74 18 21 139
13 230 -16z"/>
<path d="M11967 1846 c-40 -15 -75 -39 -147 -104 l-45 -40 96 18 c183 35 216
50 206 92 -4 13 -18 30 -32 36 -31 14 -31 14 -78 -2z"/>
<path d="M10807 1806 c-47 -17 -51 -21 -44 -40 9 -23 64 -47 121 -53 62 -6
126 10 163 41 l27 23 -27 18 c-37 24 -187 31 -240 11z"/>
<path d="M11135 1499 c-141 -28 -290 -89 -290 -119 0 -21 169 -19 255 4 71 18
240 94 240 108 0 4 -12 8 -27 8 -16 0 -50 2 -78 5 -27 2 -72 -1 -100 -6z"/>
<path d="M2537 5628 c-65 -80 -178 -280 -165 -293 8 -8 106 99 162 179 41 57
56 87 56 111 0 50 -14 50 -53 3z"/>
<path d="M2260 5112 c-22 -7 -68 -52 -91 -88 -10 -17 -25 -69 -33 -114 -11
-60 -23 -95 -44 -124 -45 -63 -75 -129 -127 -276 -43 -122 -59 -159 -117 -263
-20 -36 -24 -112 -7 -123 13 -8 55 22 81 57 10 13 24 49 32 79 19 74 129 336
231 550 90 191 105 229 105 271 0 31 -8 39 -30 31z"/>
<path d="M2100 2521 c-58 -31 -131 -102 -150 -146 -17 -40 -77 -98 -195 -189
-115 -89 -215 -200 -215 -237 0 -15 95 -7 199 17 93 21 131 54 189 163 60 112
121 183 207 241 108 73 136 117 99 154 -21 22 -90 20 -134 -3z"/>
<path d="M1524 2221 c-63 -28 -137 -112 -189 -212 -40 -77 -57 -98 -103 -125
-1 0 0 -9 4 -18 4 -9 17 -16 33 -16 89 0 331 250 331 342 0 40 -27 51 -76 29z"/>
<path d="M709 2027 c-19 -13 -47 -47 -63 -77 -37 -72 -91 -141 -167 -215 -106
-103 -112 -175 -13 -175 38 0 107 74 128 137 23 70 76 143 151 210 37 32 73
70 81 85 13 25 12 28 -8 42 -32 22 -69 20 -109 -7z"/>
</g>
</svg>
