<?xml version="1.0" standalone="no"?>
<!DOCTYPE svg PUBLIC "-//W3C//DTD SVG 20010904//EN"
 "http://www.w3.org/TR/2001/REC-SVG-20010904/DTD/svg10.dtd">
<svg version="1.0" xmlns="http://www.w3.org/2000/svg"
 width="1280.000000pt" height="1277.000000pt" viewBox="0 0 1280.000000 1277.000000"
 preserveAspectRatio="xMidYMid meet">
<metadata>
Created by potrace 1.15, written by Peter Selinger 2001-2017
</metadata>
<g transform="translate(0.000000,1277.000000) scale(0.100000,-0.100000)"
fill="#000000" stroke="none">
<path d="M6302 12749 c-52 -26 -103 -90 -134 -167 -19 -50 -23 -82 -28 -246
l-5 -188 -62 -23 c-102 -37 -205 -112 -236 -171 -42 -82 -41 -221 3 -244 10
-5 82 -10 159 -10 l141 0 0 -339 0 -338 -64 -42 c-119 -77 -216 -208 -251
-341 -8 -30 -15 -67 -15 -82 0 -16 -7 -31 -17 -36 -10 -5 -675 -229 -1478
-496 -803 -268 -1463 -491 -1467 -495 -5 -4 13 -68 38 -143 l45 -136 1464 488
1464 488 31 -50 c45 -72 114 -143 187 -190 l63 -41 0 -4698 0 -4699 -1357 0
c-896 0 -1380 -4 -1422 -11 -147 -23 -277 -88 -370 -182 -89 -90 -133 -179
-146 -294 l-7 -63 3541 0 3541 0 0 48 c0 162 -123 334 -303 421 -167 82 -33
76 -1594 79 l-1393 2 0 4698 0 4697 57 30 c79 41 180 145 226 232 50 95 69
185 65 301 l-3 92 1460 486 c803 268 1467 490 1476 495 15 7 12 23 -28 144
-25 76 -50 135 -57 135 -6 0 -679 -223 -1495 -495 l-1482 -494 -65 55 c-36 30
-85 65 -110 76 l-44 22 0 338 0 338 140 0 c138 0 141 1 167 26 24 24 25 30 21
102 -6 93 -29 144 -90 197 -40 35 -170 105 -217 118 -20 5 -21 11 -21 164 0
215 -30 321 -112 400 -66 64 -142 78 -216 42z m211 -1784 c188 -49 344 -220
377 -415 40 -236 -128 -468 -394 -545 -43 -13 -83 -16 -150 -13 -108 5 -159
25 -258 101 -122 92 -179 205 -181 357 -3 241 130 446 330 510 72 23 197 26
276 5z"/>
<path d="M6290 10919 c-73 -14 -182 -74 -232 -126 -177 -190 -169 -460 20
-633 259 -238 676 -89 731 260 47 296 -224 556 -519 499z"/>
<path d="M9790 11461 l-20 -39 47 -27 c46 -26 48 -26 85 -9 l37 17 -20 39
c-14 27 -25 38 -35 34 -9 -3 -28 1 -44 9 -29 15 -30 15 -50 -24z"/>
<path d="M9711 11302 l-20 -39 35 -16 c46 -23 48 -22 67 18 l17 35 -33 20
c-17 11 -35 20 -39 20 -4 0 -16 -17 -27 -38z"/>
<path d="M9935 11303 c-16 -8 -31 -17 -33 -18 -6 -5 32 -75 40 -75 17 0 68 31
68 41 0 15 -30 69 -38 69 -4 -1 -20 -8 -37 -17z"/>
<path d="M9635 11150 c-8 -16 -15 -34 -15 -39 0 -10 51 -41 68 -41 8 0 46 70
40 75 -7 5 -67 35 -72 35 -3 0 -12 -13 -21 -30z"/>
<path d="M10015 11143 c-16 -8 -31 -17 -33 -18 -3 -3 25 -63 33 -73 5 -6 75
32 75 40 0 15 -30 68 -38 68 -4 -1 -20 -8 -37 -17z"/>
<path d="M9555 10990 c-8 -16 -15 -33 -15 -38 0 -8 70 -46 75 -40 8 10 36 70
33 73 -6 5 -67 35 -72 35 -3 0 -12 -13 -21 -30z"/>
<path d="M10088 10984 c-16 -8 -28 -17 -28 -20 0 -5 30 -65 35 -72 5 -6 75 32
75 40 0 19 -31 68 -43 68 -6 -1 -24 -8 -39 -16z"/>
<path d="M9476 10824 c-9 -20 -16 -38 -14 -39 10 -8 70 -36 73 -33 5 6 35 67
35 72 0 7 -56 36 -68 36 -4 0 -16 -16 -26 -36z"/>
<path d="M10168 10824 c-16 -8 -28 -17 -28 -19 0 -12 35 -75 39 -72 3 2 21 10
39 17 37 16 38 20 17 60 -17 34 -28 36 -67 14z"/>
<path d="M9396 10664 c-9 -20 -16 -37 -14 -38 2 -1 19 -9 39 -18 l36 -16 17
34 c20 44 21 41 -14 59 -40 21 -44 20 -64 -21z"/>
<path d="M10255 10673 c-16 -9 -32 -17 -34 -19 -2 -2 4 -22 14 -43 l18 -40 38
20 c37 18 38 21 27 47 -20 47 -30 52 -63 35z"/>
<path d="M9320 10510 l-20 -40 40 -20 39 -20 16 29 c22 44 19 55 -20 74 l-35
17 -20 -40z"/>
<path d="M10333 10513 c-38 -19 -39 -23 -18 -63 18 -34 25 -36 66 -15 l29 16
-20 39 c-11 22 -21 40 -23 39 -1 0 -17 -8 -34 -16z"/>
<path d="M9240 10350 l-20 -40 40 -20 40 -20 20 40 20 40 -40 20 -40 20 -20
-40z"/>
<path d="M10403 10350 l-33 -19 21 -36 c12 -19 23 -35 25 -35 2 0 19 7 38 17
l35 16 -20 39 c-11 21 -23 38 -27 38 -4 0 -22 -9 -39 -20z"/>
<path d="M9161 10192 l-20 -39 35 -16 c19 -10 38 -17 42 -17 8 0 45 70 40 75
-7 6 -67 35 -72 35 -3 0 -14 -17 -25 -38z"/>
<path d="M10485 10193 c-16 -8 -31 -17 -33 -18 -5 -5 32 -75 40 -75 4 0 23 7
42 17 l35 16 -20 39 c-22 43 -23 43 -64 21z"/>
<path d="M9085 10040 c-8 -16 -15 -34 -15 -39 0 -10 51 -41 68 -41 8 0 46 70
40 75 -7 5 -67 35 -72 35 -3 0 -12 -13 -21 -30z"/>
<path d="M10565 10033 c-16 -8 -31 -17 -33 -18 -3 -3 25 -63 33 -73 5 -6 75
32 75 40 0 15 -30 68 -38 68 -4 -1 -20 -8 -37 -17z"/>
<path d="M9005 9880 c-8 -16 -15 -33 -15 -38 0 -8 70 -46 75 -40 6 7 35 68 35
73 0 6 -63 35 -74 35 -3 0 -12 -13 -21 -30z"/>
<path d="M10648 9879 c-21 -11 -38 -22 -38 -25 0 -5 30 -65 35 -72 6 -7 75 33
75 42 -1 6 -9 25 -18 43 l-17 31 -37 -19z"/>
<path d="M8925 9720 c-8 -16 -15 -33 -15 -38 0 -8 70 -46 75 -40 5 7 35 67 35
72 0 7 -56 36 -69 36 -6 0 -17 -13 -26 -30z"/>
<path d="M10728 9719 c-21 -11 -38 -22 -38 -25 0 -5 29 -65 35 -72 4 -5 75 39
75 46 -1 4 -9 21 -18 39 l-17 31 -37 -19z"/>
<path d="M8846 9554 c-9 -20 -16 -37 -14 -38 2 0 18 -9 37 -19 18 -10 35 -16
36 -15 6 7 35 67 35 72 0 7 -56 36 -68 36 -4 0 -16 -16 -26 -36z"/>
<path d="M10803 9563 c-38 -19 -39 -23 -18 -63 18 -34 25 -36 65 -15 35 18 34
15 13 60 -19 40 -17 39 -60 18z"/>
<path d="M8770 9400 l-20 -40 40 -20 41 -21 14 35 c20 48 20 50 -20 69 l-35
17 -20 -40z"/>
<path d="M10883 9403 c-38 -19 -39 -23 -18 -63 18 -34 25 -36 65 -15 35 18 34
15 13 60 -19 40 -17 39 -60 18z"/>
<path d="M9687 9356 c-21 -8 -70 -39 -110 -69 -98 -75 -132 -84 -237 -63 -87
18 -191 56 -291 107 -34 17 -62 29 -64 27 -2 -2 121 -160 274 -351 242 -306
281 -351 315 -362 22 -8 53 -23 68 -35 44 -32 130 -70 160 -70 15 0 46 7 69
17 l41 16 -51 24 c-80 38 -106 78 -102 153 3 36 54 80 94 80 39 0 116 -44 176
-99 24 -23 45 -41 46 -41 1 0 23 27 49 59 32 42 62 67 98 84 47 22 72 50 249
273 109 137 196 250 195 252 -2 1 -36 -13 -77 -32 -112 -50 -215 -86 -299
-102 -101 -20 -151 -8 -322 73 -150 71 -213 84 -281 59z"/>
<path d="M8690 9240 l-20 -40 40 -20 40 -20 20 40 20 40 -40 20 -40 20 -20
-40z"/>
<path d="M10958 9244 c-16 -8 -28 -19 -28 -25 0 -13 29 -69 36 -69 5 0 65 30
72 35 7 6 -33 75 -42 75 -6 -1 -23 -8 -38 -16z"/>
<path d="M2888 9165 l-16 -36 38 -19 c21 -11 41 -24 45 -30 4 -6 21 -2 46 10
l39 21 -18 36 c-15 28 -26 37 -48 38 -16 2 -38 6 -49 9 -16 6 -23 0 -37 -29z"/>
<path d="M8611 9082 l-20 -39 35 -16 c19 -10 38 -17 42 -17 8 0 45 70 40 75
-7 6 -67 35 -72 35 -3 0 -14 -17 -25 -38z"/>
<path d="M11033 9083 l-32 -16 20 -39 c11 -21 22 -38 25 -38 5 0 65 29 72 35
7 6 -33 75 -42 74 -6 0 -25 -7 -43 -16z"/>
<path d="M2817 9014 c-23 -46 -22 -48 18 -67 l35 -17 20 40 20 40 -38 19 -39
20 -16 -35z"/>
<path d="M3037 9009 l-37 -20 20 -39 20 -40 35 17 c19 9 35 23 35 30 0 13 -28
74 -33 73 -1 -1 -19 -10 -40 -21z"/>
<path d="M8535 8930 c-8 -16 -15 -34 -15 -39 0 -10 51 -41 68 -41 8 0 46 70
40 75 -7 5 -67 35 -72 35 -3 0 -12 -13 -21 -30z"/>
<path d="M11113 8923 l-32 -16 20 -39 19 -38 40 20 40 20 -17 35 c-19 39 -24
41 -70 18z"/>
<path d="M2737 8854 c-10 -19 -17 -36 -17 -38 0 -2 16 -13 35 -25 l36 -21 19
33 c11 17 20 35 20 39 0 4 -17 16 -38 27 l-39 20 -16 -35z"/>
<path d="M3115 8853 c-16 -8 -31 -17 -33 -18 -6 -5 32 -75 40 -75 15 0 68 30
68 39 0 14 -31 71 -38 71 -4 -1 -20 -8 -37 -17z"/>
<path d="M10212 8788 c-19 -11 -55 -51 -81 -88 l-47 -67 -59 55 c-111 101
-166 125 -209 91 -30 -24 -35 -72 -10 -107 18 -26 90 -65 154 -82 l45 -13 -75
-35 c-53 -24 -89 -35 -122 -35 -52 1 -130 33 -198 82 -33 24 -46 28 -56 20
-22 -18 -17 -26 45 -68 129 -88 211 -100 330 -50 40 17 74 29 76 27 2 -2 -8
-50 -22 -108 -13 -58 -27 -147 -30 -197 -6 -90 -5 -93 16 -93 17 0 21 6 21 33
0 39 22 167 51 299 20 88 24 97 48 101 33 7 45 -8 116 -146 44 -87 55 -117 55
-156 0 -40 4 -50 19 -54 27 -7 31 0 31 49 0 58 -28 131 -95 243 -30 51 -55 95
-55 96 0 7 127 45 170 51 25 4 53 11 63 16 25 13 21 56 -9 95 -48 64 -113 79
-172 41z m124 -59 c15 -16 26 -30 23 -32 -2 -2 -42 -14 -89 -26 -47 -13 -94
-26 -105 -29 -19 -5 -19 -5 -1 24 27 43 68 85 91 94 28 10 49 2 81 -31z m-425
-8 c24 -16 57 -43 73 -60 36 -38 22 -40 -58 -10 -58 21 -99 60 -89 85 8 21 24
17 74 -15z"/>
<path d="M8456 8771 c-9 -16 -16 -34 -16 -39 0 -8 70 -46 75 -40 1 2 10 18 19
36 17 32 17 34 -1 48 -10 7 -21 14 -25 14 -3 0 -13 3 -22 6 -10 4 -20 -5 -30
-25z"/>
<path d="M11197 8769 l-37 -20 20 -39 20 -40 40 20 40 20 -20 40 c-11 22 -21
40 -23 40 -1 -1 -19 -10 -40 -21z"/>
<path d="M2657 8695 c-9 -20 -17 -38 -17 -40 0 -6 57 -35 69 -35 10 0 41 51
41 68 0 6 -62 42 -73 42 -2 0 -11 -16 -20 -35z"/>
<path d="M3195 8693 c-16 -8 -31 -17 -33 -18 -6 -5 32 -75 40 -75 12 0 68 29
68 35 0 10 -34 75 -39 75 -3 -1 -19 -8 -36 -17z"/>
<path d="M8375 8610 c-8 -16 -15 -33 -15 -38 0 -8 70 -46 75 -40 5 7 35 67 35
72 0 7 -56 36 -69 36 -6 0 -17 -13 -26 -30z"/>
<path d="M11277 8609 l-37 -20 20 -39 20 -39 35 20 c40 24 40 23 17 66 l-17
31 -38 -19z"/>
<path d="M2577 8535 c-9 -20 -17 -38 -17 -40 0 -6 57 -35 69 -35 10 0 41 51
41 68 0 6 -62 42 -73 42 -2 0 -11 -16 -20 -35z"/>
<path d="M3273 8535 c-18 -8 -33 -17 -33 -20 0 -6 29 -66 35 -73 3 -3 63 25
73 33 5 4 -31 75 -37 75 -3 -1 -21 -7 -38 -15z"/>
<path d="M9384 8481 c-231 -122 -462 -271 -594 -386 -184 -159 -265 -327 -385
-800 -70 -274 -76 -313 -75 -453 1 -359 175 -678 504 -925 l49 -37 -881 0
c-840 0 -880 1 -875 18 3 13 -6 22 -32 35 l-35 17 -17 -35 c-16 -33 -19 -34
-77 -37 l-61 -3 110 -49 c856 -379 1846 -665 2515 -726 148 -13 492 -13 640 0
552 51 1278 239 2030 528 186 71 508 205 558 232 l37 19 -56 1 c-50 0 -57 3
-67 25 -6 14 -16 25 -22 25 -17 0 -68 -28 -72 -40 -2 -7 -298 -9 -916 -8
l-914 3 66 48 c251 184 430 470 476 759 17 107 8 299 -20 423 -12 55 -38 170
-57 255 -45 200 -102 370 -166 494 -40 79 -67 116 -131 181 -87 87 -237 200
-381 287 -103 62 -275 158 -275 153 0 -1 16 -37 36 -80 27 -57 38 -94 42 -144
4 -66 4 -70 -23 -87 -25 -16 -30 -16 -54 -3 -22 12 -27 24 -33 74 -3 33 -12
74 -18 90 -17 45 -101 185 -111 185 -19 0 -69 -235 -69 -326 0 -86 -16 -107
-77 -102 l-38 3 2 82 c1 45 12 127 23 184 12 56 19 103 17 105 -2 2 -29 -5
-60 -16 -99 -35 -177 -20 -293 55 -38 24 -73 45 -79 45 -5 0 -69 -31 -141 -69z
m556 -780 l0 -68 62 -13 c65 -12 118 -34 118 -48 0 -5 -7 -30 -16 -56 -13 -37
-20 -46 -33 -41 -72 30 -108 37 -173 33 -66 -4 -72 -6 -104 -41 -27 -29 -34
-45 -34 -77 0 -60 46 -105 174 -170 117 -59 187 -119 208 -178 20 -60 16 -160
-11 -214 -29 -60 -87 -112 -150 -135 l-51 -18 0 -77 0 -78 -55 0 -55 0 0 74 0
74 -52 7 c-55 8 -154 41 -162 54 -3 4 2 31 12 60 12 39 20 51 32 47 8 -3 40
-14 70 -25 31 -11 81 -20 113 -21 109 0 167 45 167 132 0 90 -22 114 -180 194
-161 82 -221 164 -207 284 12 97 74 173 170 208 l47 17 0 72 0 73 55 0 55 0 0
-69z"/>
<path d="M8299 8454 c-5 -15 -12 -30 -14 -34 -5 -8 65 -54 70 -48 5 7 35 67
35 72 0 7 -56 36 -70 36 -6 0 -15 -12 -21 -26z"/>
<path d="M11355 8453 c-16 -8 -31 -17 -33 -18 -6 -5 32 -75 40 -75 12 0 68 29
68 35 0 10 -34 75 -39 75 -3 -1 -19 -8 -36 -17z"/>
<path d="M2496 8374 c-9 -20 -16 -38 -14 -39 7 -5 67 -35 72 -35 7 0 36 56 36
69 0 10 -51 41 -68 41 -4 0 -16 -16 -26 -36z"/>
<path d="M3348 8374 c-16 -8 -28 -19 -28 -25 0 -13 29 -69 36 -69 5 0 65 30
72 35 7 6 -33 75 -42 75 -6 -1 -23 -8 -38 -16z"/>
<path d="M8220 8290 l-20 -40 38 -19 39 -20 16 35 c23 46 22 48 -18 67 l-35
17 -20 -40z"/>
<path d="M11435 8293 c-16 -8 -31 -17 -33 -18 -6 -5 29 -75 39 -75 12 0 69 29
69 35 0 10 -34 75 -39 75 -3 -1 -19 -8 -36 -17z"/>
<path d="M2416 8214 c-9 -20 -16 -38 -14 -39 7 -6 67 -35 72 -35 3 0 14 17 25
38 l20 39 -35 16 c-47 23 -48 22 -68 -19z"/>
<path d="M3428 8214 c-32 -17 -34 -24 -13 -64 l15 -30 38 17 c20 10 38 18 40
19 7 4 -33 74 -42 74 -6 -1 -23 -8 -38 -16z"/>
<path d="M8140 8130 l-20 -40 40 -20 40 -20 20 40 20 40 -40 20 -40 20 -20
-40z"/>
<path d="M11508 8134 c-16 -8 -28 -19 -28 -25 0 -13 29 -69 36 -69 5 0 65 30
72 35 7 6 -33 75 -42 75 -6 -1 -23 -8 -38 -16z"/>
<path d="M2337 8055 l-17 -35 40 -20 40 -20 20 40 20 40 -36 15 c-48 20 -48
20 -67 -20z"/>
<path d="M3507 8059 l-37 -20 20 -39 20 -40 40 20 40 20 -20 40 c-11 22 -21
40 -23 40 -1 -1 -19 -10 -40 -21z"/>
<path d="M8061 7972 l-20 -39 35 -16 c19 -10 38 -17 42 -17 8 0 45 70 40 75
-7 6 -67 35 -72 35 -3 0 -14 -17 -25 -38z"/>
<path d="M11588 7974 c-16 -8 -28 -19 -28 -25 0 -13 29 -69 36 -69 5 0 65 30
72 35 7 6 -33 75 -42 75 -6 -1 -23 -8 -38 -16z"/>
<path d="M2267 7904 c-23 -46 -22 -48 18 -67 l35 -17 20 40 20 40 -38 19 -39
20 -16 -35z"/>
<path d="M3587 7899 l-37 -20 20 -39 20 -40 40 20 40 20 -20 40 c-11 22 -21
40 -23 40 -1 -1 -19 -10 -40 -21z"/>
<path d="M7985 7820 c-8 -16 -15 -34 -15 -39 0 -10 51 -41 68 -41 8 0 46 70
40 75 -7 5 -67 35 -72 35 -3 0 -12 -13 -21 -30z"/>
<path d="M11667 7819 l-37 -20 20 -39 20 -40 40 20 40 20 -20 40 c-11 22 -21
40 -23 40 -1 -1 -19 -10 -40 -21z"/>
<path d="M2187 7744 c-10 -19 -17 -36 -17 -38 0 -2 16 -13 35 -25 l35 -20 20
39 20 40 -38 19 -39 20 -16 -35z"/>
<path d="M3665 7743 c-16 -8 -31 -17 -33 -18 -5 -5 32 -75 40 -75 4 0 23 7 42
17 l35 16 -20 39 c-22 43 -23 43 -64 21z"/>
<path d="M2751 7724 c-171 -46 -299 -186 -331 -364 -38 -211 85 -420 295 -500
76 -29 203 -32 286 -7 125 37 240 146 290 275 19 46 23 77 23 162 1 100 -1
108 -35 180 -46 96 -111 168 -190 209 -113 61 -225 76 -338 45z"/>
<path d="M7905 7660 c-8 -16 -15 -33 -15 -38 0 -8 70 -46 75 -40 5 7 35 67 35
72 0 7 -56 36 -69 36 -6 0 -17 -13 -26 -30z"/>
<path d="M11747 7659 l-37 -20 20 -39 20 -40 40 20 40 20 -20 40 c-11 22 -21
40 -23 40 -1 -1 -19 -10 -40 -21z"/>
<path d="M2107 7585 c-9 -20 -17 -38 -17 -40 0 -6 57 -35 69 -35 10 0 41 51
41 68 0 6 -62 42 -73 42 -2 0 -11 -16 -20 -35z"/>
<path d="M3745 7583 c-16 -8 -31 -17 -33 -18 -6 -5 32 -75 40 -75 17 0 68 31
68 41 0 15 -30 69 -38 69 -4 -1 -20 -8 -37 -17z"/>
<path d="M7825 7500 c-8 -16 -15 -33 -15 -38 0 -8 70 -46 75 -40 5 7 35 67 35
72 0 7 -56 36 -69 36 -6 0 -17 -13 -26 -30z"/>
<path d="M11828 7499 l-38 -19 17 -35 c19 -40 21 -41 67 -18 l35 16 -20 39
c-11 21 -20 38 -22 38 -1 -1 -19 -10 -39 -21z"/>
<path d="M2027 7425 c-9 -20 -17 -38 -17 -40 0 -6 57 -35 69 -35 10 0 41 51
41 68 0 6 -62 42 -73 42 -2 0 -11 -16 -20 -35z"/>
<path d="M3823 7424 c-18 -8 -33 -17 -33 -20 0 -5 29 -65 35 -72 5 -6 75 32
75 40 0 15 -30 68 -38 67 -4 0 -22 -7 -39 -15z"/>
<path d="M7750 7347 c-11 -17 -20 -35 -20 -39 0 -4 17 -16 38 -27 l39 -20 16
35 c10 19 17 36 17 38 0 2 -16 13 -35 25 l-36 21 -19 -33z"/>
<path d="M11905 7343 c-16 -8 -31 -17 -33 -18 -6 -5 32 -75 40 -75 17 0 68 31
68 41 0 15 -30 69 -38 69 -4 -1 -20 -8 -37 -17z"/>
<path d="M1946 7264 c-9 -20 -16 -38 -14 -39 7 -5 67 -35 72 -35 7 0 36 56 36
69 0 10 -51 41 -68 41 -4 0 -16 -16 -26 -36z"/>
<path d="M3898 7264 c-16 -8 -28 -17 -28 -20 0 -5 30 -65 35 -72 5 -6 75 32
75 40 0 19 -31 68 -43 68 -6 -1 -24 -8 -39 -16z"/>
<path d="M7670 7180 l-20 -40 38 -19 39 -20 16 35 c23 46 22 48 -18 67 l-35
17 -20 -40z"/>
<path d="M11985 7183 c-16 -8 -31 -17 -33 -18 -6 -5 32 -75 40 -75 17 0 68 31
68 41 0 15 -30 69 -38 69 -4 -1 -20 -8 -37 -17z"/>
<path d="M1866 7104 c-9 -20 -16 -38 -14 -39 7 -6 67 -35 72 -35 3 0 14 17 25
38 l20 39 -35 16 c-47 23 -48 22 -68 -19z"/>
<path d="M3978 7104 c-33 -17 -32 -14 -12 -57 l16 -34 39 16 c44 18 45 21 24
61 -17 34 -28 36 -67 14z"/>
<path d="M7590 7020 l-20 -40 39 -19 39 -20 20 40 20 40 -39 19 -39 20 -20
-40z"/>
<path d="M12058 7024 c-16 -8 -28 -17 -28 -20 0 -5 30 -65 35 -72 5 -6 75 32
75 40 0 19 -31 68 -43 68 -6 -1 -24 -8 -39 -16z"/>
<path d="M1787 6945 l-17 -35 40 -20 40 -20 20 39 20 40 -32 15 c-44 23 -52
20 -71 -19z"/>
<path d="M4065 6953 c-16 -8 -32 -17 -34 -19 -2 -2 4 -22 14 -43 l18 -40 38
20 c22 11 39 23 39 27 0 8 -38 72 -42 72 -2 -1 -16 -8 -33 -17z"/>
<path d="M7511 6862 l-20 -39 35 -16 c19 -10 38 -17 42 -17 8 0 45 70 40 75
-7 6 -67 35 -72 35 -3 0 -14 -17 -25 -38z"/>
<path d="M12138 6864 c-16 -8 -28 -17 -28 -20 0 -5 30 -65 35 -72 5 -6 75 32
75 40 0 19 -31 68 -43 68 -6 -1 -24 -8 -39 -16z"/>
<path d="M1710 6790 l-20 -40 40 -20 40 -20 20 40 20 40 -40 20 -40 20 -20
-40z"/>
<path d="M2257 6799 c-252 -59 -416 -450 -467 -1118 -5 -74 -10 -157 -10 -183
l0 -48 205 0 c113 0 205 3 205 8 0 4 29 178 65 387 l64 380 0 -533 1 -532
-130 -782 c-72 -429 -133 -785 -136 -789 -3 -5 -415 -9 -916 -9 -909 0 -910 0
-905 20 4 16 -3 25 -34 40 l-39 20 -20 -39 c-19 -38 -22 -40 -72 -43 l-53 -3
182 -78 c996 -425 1947 -677 2658 -704 692 -26 1765 240 2850 705 179 77 180
77 132 80 -41 3 -49 7 -62 33 -9 16 -17 29 -20 29 -17 0 -75 -36 -75 -47 0
-11 -178 -13 -1002 -11 l-1002 3 -133 795 -133 795 3 530 2 530 65 -390 65
-390 203 -3 202 -2 0 83 c0 111 -25 364 -50 510 -54 320 -141 540 -261 660
-88 88 -123 100 -312 105 -156 4 -160 4 -206 -22 -138 -74 -327 -75 -490 -1
-49 23 -65 25 -195 24 -77 -1 -158 -5 -179 -10z m744 -2560 c71 -354 129 -647
129 -651 0 -9 -513 -11 -522 -3 -3 3 54 298 125 655 72 358 132 648 134 646 3
-2 63 -294 134 -647z"/>
<path d="M4143 6793 c-38 -19 -39 -23 -18 -63 18 -34 25 -36 66 -15 l29 16
-20 39 c-11 22 -21 40 -23 39 -1 0 -17 -8 -34 -16z"/>
<path d="M7435 6710 c-8 -16 -15 -34 -15 -39 0 -10 51 -41 68 -41 8 0 46 70
40 75 -7 5 -67 35 -72 35 -3 0 -12 -13 -21 -30z"/>
<path d="M12225 6713 c-16 -9 -32 -17 -34 -19 -2 -2 4 -22 14 -43 l18 -40 38
19 c36 19 37 21 28 49 -16 44 -29 52 -64 34z"/>
<path d="M1637 6634 c-10 -19 -17 -38 -17 -42 0 -8 69 -36 74 -30 2 1 11 18
20 35 l16 32 -38 20 -39 20 -16 -35z"/>
<path d="M4213 6630 l-33 -19 21 -36 c12 -19 23 -35 25 -35 2 0 19 7 38 17
l35 16 -20 39 c-11 21 -23 38 -27 38 -4 0 -22 -9 -39 -20z"/>
<path d="M7355 6550 c-8 -16 -15 -33 -15 -38 0 -8 70 -46 75 -40 5 7 35 67 35
72 0 7 -56 36 -69 36 -6 0 -17 -13 -26 -30z"/>
<path d="M12305 6553 c-16 -8 -32 -17 -34 -19 -2 -2 4 -22 14 -43 l18 -40 38
20 39 19 -20 40 c-11 22 -21 40 -23 40 -1 -1 -15 -8 -32 -17z"/>
<path d="M1557 6475 c-9 -20 -17 -38 -17 -40 0 -7 57 -35 70 -35 10 0 45 69
38 75 -5 4 -67 35 -71 35 -2 0 -11 -16 -20 -35z"/>
<path d="M4295 6473 c-16 -8 -31 -17 -33 -18 -2 -2 27 -65 34 -74 2 -2 22 4
43 14 l40 18 -20 38 c-22 44 -23 44 -64 22z"/>
<path d="M7275 6390 c-8 -16 -15 -33 -15 -38 0 -8 70 -46 75 -40 5 7 35 67 35
72 0 7 -56 36 -69 36 -6 0 -17 -13 -26 -30z"/>
<path d="M12378 6390 l-37 -20 20 -35 c12 -19 23 -35 25 -35 2 0 19 7 38 17
l35 16 -20 39 c-11 21 -20 38 -22 38 -1 -1 -19 -10 -39 -20z"/>
<path d="M1477 6315 c-9 -20 -17 -38 -17 -40 0 -6 57 -35 69 -35 10 0 41 51
41 68 0 6 -62 42 -73 42 -2 0 -11 -16 -20 -35z"/>
<path d="M4368 6314 c-16 -8 -28 -17 -28 -20 0 -5 30 -65 35 -72 5 -6 75 32
75 40 0 19 -31 68 -43 68 -6 -1 -24 -8 -39 -16z"/>
<path d="M7195 6230 c-8 -16 -15 -31 -15 -34 0 -3 17 -14 38 -25 l39 -20 16
35 c21 44 22 41 -13 59 -40 21 -47 19 -65 -15z"/>
<path d="M12455 6233 c-16 -8 -31 -17 -33 -18 -5 -5 32 -75 40 -75 4 0 23 7
42 17 l35 16 -20 39 c-22 43 -23 43 -64 21z"/>
<path d="M1396 6154 c-9 -20 -16 -38 -14 -39 7 -5 67 -35 72 -35 7 0 36 56 36
69 0 10 -51 41 -68 41 -4 0 -16 -16 -26 -36z"/>
<path d="M4458 6159 c-21 -11 -38 -22 -38 -25 0 -5 30 -65 35 -72 6 -7 75 33
75 42 -1 6 -9 25 -18 43 l-17 31 -37 -19z"/>
<path d="M7131 6097 c-5 -7 -14 -25 -20 -40 -10 -25 -8 -28 28 -46 l38 -20 16
35 c23 46 22 48 -17 67 -27 12 -37 13 -45 4z"/>
<path d="M12535 6073 c-16 -8 -31 -17 -33 -18 -3 -3 25 -64 33 -73 6 -7 75 30
75 40 0 14 -30 68 -38 68 -4 -1 -20 -8 -37 -17z"/>
<path d="M1316 5994 c-9 -20 -16 -38 -14 -39 7 -6 67 -35 72 -35 3 0 14 17 25
38 l20 39 -35 16 c-47 23 -48 22 -68 -19z"/>
<path d="M4538 5999 c-21 -11 -38 -22 -38 -25 0 -5 29 -65 35 -72 4 -5 75 39
75 46 -1 4 -9 21 -18 39 l-17 31 -37 -19z"/>
<path d="M1237 5835 l-17 -35 40 -20 40 -20 20 39 20 40 -32 15 c-44 23 -52
20 -71 -19z"/>
<path d="M4613 5843 c-38 -19 -39 -23 -18 -63 18 -34 25 -36 65 -15 35 18 34
15 13 60 -19 40 -17 39 -60 18z"/>
<path d="M1160 5680 l-20 -40 40 -20 40 -20 20 40 20 40 -40 20 -40 20 -20
-40z"/>
<path d="M4693 5683 c-38 -19 -39 -23 -18 -63 18 -34 25 -36 65 -15 35 18 34
15 13 60 -19 40 -17 39 -60 18z"/>
<path d="M1087 5524 c-21 -44 -22 -41 13 -59 40 -21 44 -20 63 20 l17 35 -39
19 -38 20 -16 -35z"/>
<path d="M4768 5524 c-16 -8 -28 -19 -28 -25 0 -13 29 -69 36 -69 5 0 65 30
72 35 7 6 -33 75 -42 75 -6 -1 -23 -8 -38 -16z"/>
<path d="M1007 5365 c-9 -20 -17 -38 -17 -40 0 -6 56 -35 68 -35 8 0 46 70 40
75 -5 4 -67 35 -71 35 -2 0 -11 -16 -20 -35z"/>
<path d="M4843 5363 l-32 -16 20 -39 c11 -21 22 -38 25 -38 5 0 65 29 72 35 7
6 -33 75 -42 74 -6 0 -25 -7 -43 -16z"/>
<path d="M927 5205 c-9 -20 -17 -38 -17 -40 0 -4 67 -35 76 -35 5 0 34 57 34
68 0 6 -62 42 -73 42 -2 0 -11 -16 -20 -35z"/>
<path d="M4917 5204 l-27 -15 20 -39 20 -40 40 20 40 20 -17 35 c-18 38 -34
42 -76 19z"/>
<path d="M846 5044 c-9 -20 -16 -38 -14 -39 7 -5 67 -35 72 -35 7 0 36 56 36
69 0 10 -51 41 -68 41 -4 0 -16 -16 -26 -36z"/>
<path d="M5007 5049 l-37 -20 20 -39 20 -40 40 20 40 20 -20 40 c-11 22 -21
40 -23 40 -1 -1 -19 -10 -40 -21z"/>
<path d="M766 4884 c-9 -20 -16 -38 -14 -39 7 -5 67 -35 72 -35 7 0 36 56 36
69 0 10 -51 41 -68 41 -4 0 -16 -16 -26 -36z"/>
<path d="M5088 4889 l-38 -19 17 -35 c19 -40 23 -41 63 -20 35 18 35 19 12 62
l-17 31 -37 -19z"/>
<path d="M687 4725 l-17 -35 40 -20 40 -20 20 40 20 39 -29 16 c-44 22 -55 19
-74 -20z"/>
<path d="M5165 4733 c-16 -8 -31 -17 -33 -18 -6 -5 32 -75 40 -75 12 0 68 29
68 35 0 10 -34 75 -39 75 -3 -1 -19 -8 -36 -17z"/>
<path d="M610 4570 l-20 -40 40 -20 40 -20 20 40 20 40 -40 20 -40 20 -20 -40z"/>
<path d="M5245 4573 c-16 -8 -32 -17 -33 -19 -7 -5 30 -74 40 -74 11 0 68 29
68 35 0 10 -34 75 -39 75 -3 -1 -19 -8 -36 -17z"/>
<path d="M535 4421 c-21 -41 -19 -48 15 -66 40 -21 44 -20 63 20 l17 35 -40
20 -39 20 -16 -29z"/>
<path d="M5318 4414 c-16 -8 -28 -19 -28 -25 0 -13 29 -69 36 -69 5 0 65 30
72 35 7 6 -33 75 -42 75 -6 -1 -23 -8 -38 -16z"/>
<path d="M457 4255 c-9 -20 -17 -38 -17 -40 0 -6 56 -35 68 -35 8 0 46 70 40
75 -5 4 -67 35 -71 35 -2 0 -11 -16 -20 -35z"/>
<path d="M5398 4254 c-16 -8 -28 -19 -28 -25 0 -13 29 -69 36 -69 5 0 65 30
72 35 7 6 -33 75 -42 75 -6 -1 -23 -8 -38 -16z"/>
<path d="M377 4095 c-9 -20 -17 -38 -17 -40 0 -5 72 -37 75 -33 8 10 36 70 33
73 -5 4 -67 35 -71 35 -2 0 -11 -16 -20 -35z"/>
<path d="M5477 4099 l-37 -20 20 -39 20 -40 40 20 40 20 -20 40 c-11 22 -21
40 -23 40 -1 -1 -19 -10 -40 -21z"/>
<path d="M296 3934 c-9 -20 -16 -38 -14 -39 7 -5 67 -35 72 -35 7 0 36 56 36
69 0 10 -51 41 -68 41 -4 0 -16 -16 -26 -36z"/>
<path d="M5557 3939 l-37 -20 20 -39 20 -40 40 20 40 20 -20 40 c-11 22 -21
40 -23 40 -1 -1 -19 -10 -40 -21z"/>
<path d="M216 3774 c-9 -20 -16 -38 -14 -39 7 -5 67 -35 72 -35 7 0 36 56 36
69 0 10 -51 41 -68 41 -4 0 -16 -16 -26 -36z"/>
<path d="M5638 3779 l-38 -19 17 -35 c19 -40 21 -41 67 -18 l35 16 -20 39
c-11 21 -20 38 -22 38 -1 -1 -19 -10 -39 -21z"/>
</g>
</svg>
